<?xml version="1.0" encoding="utf-8"?>
<!-- Generator: Adobe Illustrator 27.2.0, SVG Export Plug-In . SVG Version: 6.00 Build 0)  -->
<svg version="1.1" id="Layer_2_00000009579521624855032860000007933441161486422716_"
	 xmlns="http://www.w3.org/2000/svg" xmlns:xlink="http://www.w3.org/1999/xlink" x="0px" y="0px" viewBox="0 0 147.6 120"
	 style="enable-background:new 0 0 147.6 120;" xml:space="preserve">
<style type="text/css">
	.st0{clip-path:url(#SVGID_00000171696116319533701550000013899880341876041865_);}
	.st1{clip-path:url(#SVGID_00000061463466023086641650000006257011554365713593_);}
	.st2{fill:#4158D0;}
	.st3{clip-path:url(#SVGID_00000151509227572664373030000012477575822190312330_);}
	.st4{clip-path:url(#SVGID_00000102503416556759202760000011806487862719497149_);}
	.st5{fill:#FFCC70;}
</style>
<g id="Layer_1-2">
	<g>
		<defs>
			<rect id="SVGID_1_" x="49.2" width="98.4" height="80"/>
		</defs>
		<clipPath id="SVGID_00000084502476494846914460000009352989617897969286_">
			<use xlink:href="#SVGID_1_"  style="overflow:visible;"/>
		</clipPath>
		<g style="clip-path:url(#SVGID_00000084502476494846914460000009352989617897969286_);">
			<g>
				<defs>
					<path id="SVGID_00000036234963868210445980000016123104092442726818_" d="M145.3,26.7c1.4,4.1,2.3,8.8,2.3,13.3s-0.8,9-2.2,13
						c0,0.1,0,0.2-0.1,0.3c-5.6,15.2-20.3,26.5-37.5,26.7H49.2V0h58.6C125.1,0.2,139.9,11.3,145.3,26.7"/>
				</defs>
				<clipPath id="SVGID_00000147204307479075452970000011690620552098146709_">
					<use xlink:href="#SVGID_00000036234963868210445980000016123104092442726818_"  style="overflow:visible;"/>
				</clipPath>
				<g style="clip-path:url(#SVGID_00000147204307479075452970000011690620552098146709_);">
					<path class="st2" d="M147.6,0v80H49.2V0H147.6L147.6,0z"/>
				</g>
			</g>
		</g>
	</g>
	<g>
		<defs>
			<rect id="SVGID_00000005982224004902229190000013096474035568521626_" y="40" width="98.4" height="80"/>
		</defs>
		<clipPath id="SVGID_00000079481680393793794690000011095286009282375355_">
			<use xlink:href="#SVGID_00000005982224004902229190000013096474035568521626_"  style="overflow:visible;"/>
		</clipPath>
		<g style="clip-path:url(#SVGID_00000079481680393793794690000011095286009282375355_);">
			<g>
				<defs>
					<path id="SVGID_00000021100770931943936490000007919952512719779772_" d="M2.3,93.3C0.9,89.2,0,84.5,0,79.9s0.8-9,2.2-13
						c0-0.1,0-0.2,0.1-0.3C7.8,51.4,22.6,40.2,39.8,40h58.7v80H39.8C22.5,119.7,7.8,108.7,2.3,93.3"/>
				</defs>
				<clipPath id="SVGID_00000134214743545971246970000012035038200048652207_">
					<use xlink:href="#SVGID_00000021100770931943936490000007919952512719779772_"  style="overflow:visible;"/>
				</clipPath>
				<g style="clip-path:url(#SVGID_00000134214743545971246970000012035038200048652207_);">
					<path class="st5" d="M0,120V40h98.4v80C98.4,120,0,120,0,120z"/>
				</g>
			</g>
		</g>
	</g>
</g>
</svg>
