<?xml version="1.0" encoding="utf-8"?>
<?xml-stylesheet type="text/css" href="logo-style.css"?>
<svg id="eazHLWTwkio1" xmlns="http://www.w3.org/2000/svg" xmlns:xlink="http://www.w3.org/1999/xlink" viewBox="0 0 375 374.999991" shape-rendering="geometricPrecision" text-rendering="geometricPrecision">
<g id="eazHLWTwkio2" transform="translate(132 0)" opacity="0" clip-path="url(#eazHLWTwkio9)"><g><g clip-path="url(#eazHLWTwkio7)"><g><path d="M242.859375,97.523438v59.984374h-73.824219v-59.984374Zm0,0" fill="#5271ff"/></g><clipPath id="eazHLWTwkio7"><path d="M241.128906,117.527344c1.046875,3.066406,1.730469,6.570312,1.730469,10.003906c0,3.429688-.585937,6.730469-1.632813,9.773438-.03125.066406-.03125.132812-.066406.195312-4.183594,11.429688-15.226562,19.84375-28.136718,20.007812h-43.988282v-59.984374h43.953125c13.007813.160156,24.054688,8.445312,28.140625,20.003906"/></clipPath></g></g><clipPath id="eazHLWTwkio9"><path d="M169.035156,97.523438h73.824219v59.984374h-73.824219Zm0,0"/></clipPath></g><g id="eazHLWTwkio11" transform="translate(-132.272406-.050782)" opacity="0" clip-path="url(#eazHLWTwkio18)"><g><g clip-path="url(#eazHLWTwkio16)"><g><path d="M132.132812,187.492188v-59.984376h73.824219v59.984376Zm0,0" fill="#5ce1e6"/></g><clipPath id="eazHLWTwkio16"><path d="M133.863281,167.484375c-1.046875-3.066406-1.730469-6.570313-1.730469-10.003906c0-3.429688.585938-6.730469,1.632813-9.773438.03125-.066406.03125-.128906.066406-.195312c4.179688-11.425781,15.226563-19.84375,28.136719-20.003907h43.988281v59.984376h-43.957031c-13.003906-.164063-24.050781-8.449219-28.136719-20.007813"/></clipPath></g></g><clipPath id="eazHLWTwkio18"><path d="M132.132812,127.507812h73.824219v59.984376h-73.824219Zm0,0"/></clipPath></g><g opacity="0" clip-path="url(#eazHLWTwkio23)"><g><path d="M169.042969,157.507812h36.859375v29.933594h-36.859375Zm0,0" fill="#5271ff"/></g><clipPath id="eazHLWTwkio23"><path d="M169.042969,157.507812h36.914062v29.992188h-36.914062Zm0,0"/></clipPath></g><g id="eazHLWTwkio25" opacity="0"><g transform="translate(120.604 245.4)"><g transform="translate(.000001 0.000001)"><path d="M2.40625,0c-.1875,0-.34375-.054687-.46875-.171875-.117188-.125-.171875-.28125-.171875-.46875v-23.90625c0-.195313.054687-.351563.171875-.46875.125-.125.28125-.1875.46875-.1875h8.96875c1.875,0,3.53125.328125,4.96875.984375c1.4375.648438,2.550781,1.570312,3.34375,2.765625.789062,1.199219,1.1875,2.578125,1.1875,4.140625v9.421875c0,1.5625-.398438,2.949219-1.1875,4.15625-.792969,1.199219-1.90625,2.121094-3.34375,2.765625C14.90625,-0.320312,13.25,0,11.375,0Zm5.328125-5.359375c0,.167969.082031.25.25.25h3.640625c.957031,0,1.738281-.335937,2.34375-1.015625.601562-.6875.914062-1.609375.9375-2.765625v-7.421875c0-1.144531-.308594-2.0625-.921875-2.75-.617187-.6875-1.414063-1.03125-2.390625-1.03125h-3.609375c-.167969,0-.25.085938-.25.25Zm0,0" transform="translate(.000001 0.000001)" fill="#2b2828"/></g></g></g><g id="eazHLWTwkio29" opacity="0"><g transform="translate(145.732 245.4)"><g transform="translate(.000001 0.000001)"><path d="M19.65625,-20.734375c0,.1875-.0625.34375-.1875.46875-.117188.117187-.265625.171875-.453125.171875h-11.03125c-.167969,0-.25.085938-.25.25v4.296875c0,.167969.082031.25.25.25h6.953125c.195312,0,.351562.0625.46875.1875.125.117187.1875.265625.1875.453125v3.78125c0,.199219-.0625.359375-.1875.484375-.117188.117187-.273438.171875-.46875.171875h-6.953125c-.167969,0-.25.085938-.25.25v4.609375c0,.167969.082031.25.25.25h11.03125c.1875,0,.335937.0625.453125.1875.125.117187.1875.265625.1875.453125v3.828125c0,.1875-.0625.34375-.1875.46875C19.351562,-0.054687,19.203125,0,19.015625,0L2.40625,0c-.1875,0-.34375-.054687-.46875-.171875-.117188-.125-.171875-.28125-.171875-.46875v-23.90625c0-.195313.054687-.351563.171875-.46875.125-.125.28125-.1875.46875-.1875h16.609375c.1875,0,.335937.0625.453125.1875.125.117187.1875.273437.1875.46875Zm0,0" transform="translate(.000001 0.000001)" fill="#2b2828"/></g></g></g><g id="eazHLWTwkio33" opacity="0"><g transform="translate(169.384 245.4)"><g transform="translate(.000001 0.000001)"><path d="M10.765625,0.28125c-1.917969,0-3.605469-.316406-5.0625-.953125-1.449219-.632813-2.570313-1.546875-3.359375-2.734375-.792969-1.1875-1.1875-2.5625-1.1875-4.125v-.453125c0-.195313.054688-.351563.171875-.46875.125-.125.28125-.1875.46875-.1875h4.578125c.1875,0,.335938.042969.453125.125.125.085937.1875.1875.1875.3125v.421875c0,.773438.390625,1.460938,1.171875,2.0625.78125.59375,1.785156.890625,3.015625.890625c1.050781,0,1.828125-.222656,2.328125-.671875.507812-.457031.765625-.988281.765625-1.59375c0-.664062-.296875-1.179688-.890625-1.546875-.585938-.363281-1.632812-.785156-3.140625-1.265625l-.796875-.25c-1.542969-.5-2.890625-1.039062-4.046875-1.625-1.148437-.59375-2.125-1.410156-2.9375-2.453125-.8125-1.039063-1.21875-2.332031-1.21875-3.875c0-1.488281.382813-2.789063,1.15625-3.90625.78125-1.113281,1.859375-1.96875,3.234375-2.5625c1.382812-.601563,2.957031-.90625,4.71875-.90625c1.84375,0,3.5.339844,4.96875,1.015625c1.476562.667969,2.640625,1.617188,3.484375,2.84375.84375,1.21875,1.265625,2.621094,1.265625,4.203125v.28125c0,.199219-.0625.359375-.1875.484375-.117188.117188-.273438.171875-.46875.171875h-4.5625c-.199219,0-.359375-.03125-.484375-.09375-.117187-.0625-.171875-.148437-.171875-.265625v-.328125c0-.84375-.375-1.585937-1.125-2.234375-.742188-.644531-1.734375-.96875-2.984375-.96875-.929687,0-1.65625.195312-2.1875.578125-.53125.386719-.796875.921875-.796875,1.609375c0,.53125.164062.976562.5,1.328125.34375.34375.867188.667969,1.578125.96875.707031.304687,1.789063.695313,3.25,1.171875c1.675781.574219,2.984375,1.078125,3.921875,1.515625.9375.429687,1.816406,1.132813,2.640625,2.109375.832031.96875,1.25,2.246094,1.25,3.828125c0,1.511719-.398437,2.839844-1.1875,3.984375-.792969,1.136719-1.90625,2.015625-3.34375,2.640625-1.4375.617188-3.09375.921875-4.96875.921875Zm0,0" transform="translate(.000001 0.000001)" fill="#2b2828"/></g></g></g><g id="eazHLWTwkio37" opacity="0"><g transform="translate(193.684 245.4)"><g transform="translate(0 0.000001)"><path d="M2.40625,0c-.1875,0-.34375-.054687-.46875-.171875-.117188-.125-.171875-.28125-.171875-.46875v-23.90625c0-.195313.054687-.351563.171875-.46875.125-.125.28125-.1875.46875-.1875h4.6875c.1875,0,.335938.0625.453125.1875.125.117187.1875.273437.1875.46875v23.90625c0,.1875-.0625.34375-.1875.46875C7.429688,-0.054687,7.28125,0,7.09375,0Zm0,0" transform="translate(0 0.000001)" fill="#2b2828"/></g></g></g><g id="eazHLWTwkio41" opacity="0"><g transform="translate(206.104 245.4)"><g transform="translate(0 0.000001)"><path d="M11.015625,0.28125c-1.917969,0-3.605469-.378906-5.0625-1.140625-1.449219-.769531-2.574219-1.847656-3.375-3.234375C1.773438,-5.488281,1.375,-7.097656,1.375,-8.921875v-7.390625c0-1.820312.398438-3.421875,1.203125-4.796875.800781-1.382813,1.925781-2.457031,3.375-3.21875c1.457031-.769531,3.144531-1.15625,5.0625-1.15625c1.894531,0,3.570313.367187,5.03125,1.09375c1.46875.730469,2.601563,1.734375,3.40625,3.015625.800781,1.273438,1.203125,2.671875,1.203125,4.203125c0,.40625-.214844.609375-.640625.609375h-4.671875c-.4375,0-.65625-.070312-.65625-.21875v-.203125c0-.9375-.335938-1.734375-1-2.390625-.65625-.664062-1.546875-1-2.671875-1-1.105469,0-1.996094.359375-2.671875,1.078125-.667969.71875-1,1.65625-1,2.8125v7.734375c0,1.15625.367188,2.09375,1.109375,2.8125.75.71875,1.6875,1.078125,2.8125,1.078125c1.0625,0,1.914063-.28125,2.5625-.84375.644531-.5625.96875-1.347656.96875-2.359375v-.9375c0-.164062-.085937-.25-.25-.25h-3.3125c-.199219,0-.359375-.054688-.484375-.171875-.117188-.125-.171875-.285156-.171875-.484375v-3.515625c0-.195313.054687-.351563.171875-.46875.125-.125.285156-.1875.484375-.1875h8.78125c.1875,0,.335937.0625.453125.1875.125.117187.1875.273437.1875.46875v4.671875c0,1.804688-.402344,3.390625-1.203125,4.765625-.804687,1.367187-1.933594,2.417969-3.390625,3.15625-1.449219.742188-3.132812,1.109375-5.046875,1.109375Zm0,0" transform="translate(0 0.000001)" fill="#2b2828"/></g></g></g><g id="eazHLWTwkio45" opacity="0"><g transform="translate(230.872 245.4)"><g transform="translate(0 0.000001)"><path d="M2.453125,0c-.199219,0-.359375-.054687-.484375-.171875-.117188-.125-.171875-.28125-.171875-.46875v-23.90625c0-.195313.054687-.351563.171875-.46875.125-.125.285156-.1875.484375-.1875h4.421875c.332031,0,.582031.148437.75.4375L15.546875,-11.375c.050781.09375.113281.132812.1875.109375.070313-.019531.109375-.09375.109375-.21875l-.046875-13.0625c0-.195313.054687-.351563.171875-.46875.125-.125.285156-.1875.484375-.1875h4.609375c.1875,0,.335938.0625.453125.1875.125.117187.1875.273437.1875.46875v23.90625c0,.1875-.0625.34375-.1875.46875C21.398438,-0.054687,21.25,0,21.0625,0h-4.4375c-.3125,0-.5625-.144531-.75-.4375L7.953125,-14c-.042969-.125-.109375-.171875-.203125-.140625-.085938.023437-.125.089844-.125.203125l.078125,13.296875c0,.1875-.0625.34375-.1875.46875C7.398438,-0.054687,7.25,0,7.0625,0Zm0,0" transform="translate(0 0.000001)" fill="#2b2828"/></g></g></g><g id="eazHLWTwkio49" opacity="0"><g transform="translate(161.373 270.95)"><g transform="translate(.000001 0.000001)"><path d="M1.546875,0c-.074219,0-.132813-.019531-.171875-.0625-.042969-.039062-.0625-.097656-.0625-.171875v-10.71875c0-.082031.019531-.144531.0625-.1875.039062-.039063.097656-.0625.171875-.0625h3.796875c1.113281,0,2,.292969,2.65625.875.65625.585937.984375,1.359375.984375,2.328125v4.796875c0,.96875-.328125,1.746094-.984375,2.328125C7.34375,-0.289062,6.457031,0,5.34375,0ZM2.84375,-1.40625c0,.054688.023438.078125.078125.078125h2.484375c.625,0,1.117188-.1875,1.484375-.5625.363281-.382813.550781-.894531.5625-1.53125v-4.359375c0-.632812-.183594-1.140625-.546875-1.515625-.367188-.382813-.867188-.578125-1.5-.578125h-2.484375c-.054687,0-.078125.027344-.078125.078125Zm0,0" transform="translate(.000001 0.000001)" fill="#2b2828"/></g></g></g><g id="eazHLWTwkio53" opacity="0"><g transform="translate(175.098 270.95)"><g transform="translate(0 0.000001)"><path d="M8.75,-10.109375c0,.074219-.023438.132813-.0625.171875-.042969.042969-.101562.0625-.171875.0625h-5.59375c-.054687,0-.078125.027344-.078125.078125v3.40625c0,.0625.023438.09375.078125.09375h3.8125c.070313,0,.128906.023437.171875.0625.039062.042969.0625.101563.0625.171875v.84375c0,.074219-.023438.136719-.0625.1875-.042969.042969-.101562.0625-.171875.0625h-3.8125c-.054687,0-.078125.027344-.078125.078125v3.484375c0,.054688.023438.078125.078125.078125h5.59375c.070313,0,.128906.023437.171875.0625.039062.042969.0625.101563.0625.171875v.859375c0,.074219-.023438.132813-.0625.171875C8.644531,-0.019531,8.585938,0,8.515625,0h-6.96875c-.074219,0-.132813-.019531-.171875-.0625-.042969-.039062-.0625-.097656-.0625-.171875v-10.71875c0-.082031.019531-.144531.0625-.1875.039062-.039063.097656-.0625.171875-.0625h6.96875c.070313,0,.128906.023437.171875.0625.039062.042969.0625.105469.0625.1875Zm0,0" transform="translate(0 0.000001)" fill="#2b2828"/></g></g></g><g id="eazHLWTwkio57" opacity="0"><g transform="translate(188.504 270.95)"><g transform="translate(0 0.000001)"><path d="M1.5625,0c-.074219,0-.132812-.019531-.171875-.0625-.042969-.039062-.0625-.097656-.0625-.171875v-10.71875c0-.082031.019531-.144531.0625-.1875.039063-.039063.097656-.0625.171875-.0625h1.078125c.125,0,.21875.054687.28125.15625L5.609375,-6.75c.03125.0625.066406.0625.109375,0l2.703125-4.296875c.0625-.101563.15625-.15625.28125-.15625h1.078125c.070312,0,.128906.023437.171875.0625.039063.042969.0625.105469.0625.1875v10.71875c0,.074219-.023437.132813-.0625.171875C9.910156,-0.019531,9.851562,0,9.78125,0h-1.0625c-.074219,0-.132812-.019531-.171875-.0625-.042969-.039062-.0625-.097656-.0625-.171875v-8.140625c0-.039062-.011719-.0625-.03125-.0625-.023437-.007812-.042969,0-.0625.03125l-2.1875,3.5625c-.0625.105469-.15625.15625-.28125.15625h-.515625c-.125,0-.21875-.050781-.28125-.15625l-2.171875-3.5625c-.023437-.03125-.042969-.039062-.0625-.03125-.023437,0-.03125.023438-.03125.0625v8.140625c0,.074219-.023437.132813-.0625.171875C2.753906,-0.019531,2.695312,0,2.625,0Zm0,0" transform="translate(0 0.000001)" fill="#2b2828"/></g></g></g><g id="eazHLWTwkio61" opacity="0"><g transform="translate(203.669 270.95)"><g><path d="M4.953125,0.140625c-.773437,0-1.460937-.15625-2.0625-.46875C2.296875,-0.648438,1.832031,-1.101562,1.5,-1.6875c-.324219-.582031-.484375-1.253906-.484375-2.015625v-3.796875c0-.757812.160156-1.425781.484375-2c.332031-.582031.796875-1.03125,1.390625-1.34375.601563-.320312,1.289063-.484375,2.0625-.484375.789063,0,1.484375.164063,2.078125.484375.601562.3125,1.066406.761719,1.390625,1.34375.332031.574219.5,1.242188.5,2v3.796875c0,.761719-.167969,1.433594-.5,2.015625-.324219.585938-.789063,1.039062-1.390625,1.359375-.59375.3125-1.289062.46875-2.078125.46875Zm0-1.328125c.726563,0,1.316406-.222656,1.765625-.671875.445312-.445313.671875-1.035156.671875-1.765625v-3.890625c0-.75-.226563-1.347656-.671875-1.796875C6.269531,-9.769531,5.679688,-10,4.953125,-10c-.71875,0-1.304687.230469-1.75.6875-.4375.449219-.65625,1.046875-.65625,1.796875v3.890625c0,.730469.21875,1.320312.65625,1.765625.445313.449219,1.03125.671875,1.75.671875Zm0,0" fill="#2b2828"/></g></g></g>
<script><![CDATA[
!function(t,n){"object"==typeof exports&&"undefined"!=typeof module?module.exports=n():"function"==typeof __SVGATOR_DEFINE__&&__SVGATOR_DEFINE__.amd?__SVGATOR_DEFINE__(n):((t="undefined"!=typeof globalThis?globalThis:t||self).__SVGATOR_PLAYER__=t.__SVGATOR_PLAYER__||{},t.__SVGATOR_PLAYER__["5c7f360c"]=n())}(this,(function(){"use strict";function t(t,n){var e=Object.keys(t);if(Object.getOwnPropertySymbols){var r=Object.getOwnPropertySymbols(t);n&&(r=r.filter((function(n){return Object.getOwnPropertyDescriptor(t,n).enumerable}))),e.push.apply(e,r)}return e}function n(n){for(var e=1;e<arguments.length;e++){var r=null!=arguments[e]?arguments[e]:{};e%2?t(Object(r),!0).forEach((function(t){o(n,t,r[t])})):Object.getOwnPropertyDescriptors?Object.defineProperties(n,Object.getOwnPropertyDescriptors(r)):t(Object(r)).forEach((function(t){Object.defineProperty(n,t,Object.getOwnPropertyDescriptor(r,t))}))}return n}function e(t){return(e="function"==typeof Symbol&&"symbol"==typeof Symbol.iterator?function(t){return typeof t}:function(t){return t&&"function"==typeof Symbol&&t.constructor===Symbol&&t!==Symbol.prototype?"symbol":typeof t})(t)}function r(t,n){if(!(t instanceof n))throw new TypeError("Cannot call a class as a function")}function i(t,n){for(var e=0;e<n.length;e++){var r=n[e];r.enumerable=r.enumerable||!1,r.configurable=!0,"value"in r&&(r.writable=!0),Object.defineProperty(t,r.key,r)}}function u(t,n,e){return n&&i(t.prototype,n),e&&i(t,e),t}function o(t,n,e){return n in t?Object.defineProperty(t,n,{value:e,enumerable:!0,configurable:!0,writable:!0}):t[n]=e,t}function a(t){return(a=Object.setPrototypeOf?Object.getPrototypeOf:function(t){return t.__proto__||Object.getPrototypeOf(t)})(t)}function l(t,n){return(l=Object.setPrototypeOf||function(t,n){return t.__proto__=n,t})(t,n)}function s(){if("undefined"==typeof Reflect||!Reflect.construct)return!1;if(Reflect.construct.sham)return!1;if("function"==typeof Proxy)return!0;try{return Boolean.prototype.valueOf.call(Reflect.construct(Boolean,[],(function(){}))),!0}catch(t){return!1}}function f(t,n,e){return(f=s()?Reflect.construct:function(t,n,e){var r=[null];r.push.apply(r,n);var i=new(Function.bind.apply(t,r));return e&&l(i,e.prototype),i}).apply(null,arguments)}function c(t,n){if(n&&("object"==typeof n||"function"==typeof n))return n;if(void 0!==n)throw new TypeError("Derived constructors may only return object or undefined");return function(t){if(void 0===t)throw new ReferenceError("this hasn't been initialised - super() hasn't been called");return t}(t)}function h(t,n,e){return(h="undefined"!=typeof Reflect&&Reflect.get?Reflect.get:function(t,n,e){var r=function(t,n){for(;!Object.prototype.hasOwnProperty.call(t,n)&&null!==(t=a(t)););return t}(t,n);if(r){var i=Object.getOwnPropertyDescriptor(r,n);return i.get?i.get.call(e):i.value}})(t,n,e||t)}function v(t){return function(t){if(Array.isArray(t))return y(t)}(t)||function(t){if("undefined"!=typeof Symbol&&null!=t[Symbol.iterator]||null!=t["@@iterator"])return Array.from(t)}(t)||function(t,n){if(!t)return;if("string"==typeof t)return y(t,n);var e=Object.prototype.toString.call(t).slice(8,-1);"Object"===e&&t.constructor&&(e=t.constructor.name);if("Map"===e||"Set"===e)return Array.from(t);if("Arguments"===e||/^(?:Ui|I)nt(?:8|16|32)(?:Clamped)?Array$/.test(e))return y(t,n)}(t)||function(){throw new TypeError("Invalid attempt to spread non-iterable instance.\nIn order to be iterable, non-array objects must have a [Symbol.iterator]() method.")}()}function y(t,n){(null==n||n>t.length)&&(n=t.length);for(var e=0,r=new Array(n);e<n;e++)r[e]=t[e];return r}Number.isInteger||(Number.isInteger=function(t){return"number"==typeof t&&isFinite(t)&&Math.floor(t)===t}),Number.EPSILON||(Number.EPSILON=2220446049250313e-31);var g=p(Math.pow(10,-6));function p(t){var n=arguments.length>1&&void 0!==arguments[1]?arguments[1]:6;if(Number.isInteger(t))return t;var e=Math.pow(10,n);return Math.round((+t+Number.EPSILON)*e)/e}function d(t,n){var e=arguments.length>2&&void 0!==arguments[2]?arguments[2]:g;return Math.abs(t-n)<e}var m=Math.PI/180;function b(t){return t}function w(t,n,e){var r=1-e;return 3*e*r*(t*r+n*e)+e*e*e}function A(){var t=arguments.length>0&&void 0!==arguments[0]?arguments[0]:0,n=arguments.length>1&&void 0!==arguments[1]?arguments[1]:0,e=arguments.length>2&&void 0!==arguments[2]?arguments[2]:1,r=arguments.length>3&&void 0!==arguments[3]?arguments[3]:1;return t<0||t>1||e<0||e>1?null:d(t,n)&&d(e,r)?b:function(i){if(i<=0)return t>0?i*n/t:0===n&&e>0?i*r/e:0;if(i>=1)return e<1?1+(i-1)*(r-1)/(e-1):1===e&&t<1?1+(i-1)*(n-1)/(t-1):1;for(var u,o=0,a=1;o<a;){var l=w(t,e,u=(o+a)/2);if(d(i,l))break;l<i?o=u:a=u}return w(n,r,u)}}function _(){return 1}function x(t){return 1===t?1:0}function k(){var t=arguments.length>0&&void 0!==arguments[0]?arguments[0]:1,n=arguments.length>1&&void 0!==arguments[1]?arguments[1]:0;if(1===t){if(0===n)return x;if(1===n)return _}var e=1/t;return function(t){return t>=1?1:(t+=n*e)-t%e}}var S=Math.sin,O=Math.cos,j=Math.acos,E=Math.asin,M=Math.tan,P=Math.atan2,I=Math.PI/180,R=180/Math.PI,F=Math.sqrt,N=function(){function t(){var n=arguments.length>0&&void 0!==arguments[0]?arguments[0]:1,e=arguments.length>1&&void 0!==arguments[1]?arguments[1]:0,i=arguments.length>2&&void 0!==arguments[2]?arguments[2]:0,u=arguments.length>3&&void 0!==arguments[3]?arguments[3]:1,o=arguments.length>4&&void 0!==arguments[4]?arguments[4]:0,a=arguments.length>5&&void 0!==arguments[5]?arguments[5]:0;r(this,t),this.m=[n,e,i,u,o,a],this.i=null,this.w=null,this.s=null}return u(t,[{key:"determinant",get:function(){var t=this.m;return t[0]*t[3]-t[1]*t[2]}},{key:"isIdentity",get:function(){if(null===this.i){var t=this.m;this.i=1===t[0]&&0===t[1]&&0===t[2]&&1===t[3]&&0===t[4]&&0===t[5]}return this.i}},{key:"point",value:function(t,n){var e=this.m;return{x:e[0]*t+e[2]*n+e[4],y:e[1]*t+e[3]*n+e[5]}}},{key:"translateSelf",value:function(){var t=arguments.length>0&&void 0!==arguments[0]?arguments[0]:0,n=arguments.length>1&&void 0!==arguments[1]?arguments[1]:0;if(!t&&!n)return this;var e=this.m;return e[4]+=e[0]*t+e[2]*n,e[5]+=e[1]*t+e[3]*n,this.w=this.s=this.i=null,this}},{key:"rotateSelf",value:function(){var t=arguments.length>0&&void 0!==arguments[0]?arguments[0]:0;if(t%=360){var n=S(t*=I),e=O(t),r=this.m,i=r[0],u=r[1];r[0]=i*e+r[2]*n,r[1]=u*e+r[3]*n,r[2]=r[2]*e-i*n,r[3]=r[3]*e-u*n,this.w=this.s=this.i=null}return this}},{key:"scaleSelf",value:function(){var t=arguments.length>0&&void 0!==arguments[0]?arguments[0]:1,n=arguments.length>1&&void 0!==arguments[1]?arguments[1]:1;if(1!==t||1!==n){var e=this.m;e[0]*=t,e[1]*=t,e[2]*=n,e[3]*=n,this.w=this.s=this.i=null}return this}},{key:"skewSelf",value:function(t,n){if(n%=360,(t%=360)||n){var e=this.m,r=e[0],i=e[1],u=e[2],o=e[3];t&&(t=M(t*I),e[2]+=r*t,e[3]+=i*t),n&&(n=M(n*I),e[0]+=u*n,e[1]+=o*n),this.w=this.s=this.i=null}return this}},{key:"resetSelf",value:function(){var t=arguments.length>0&&void 0!==arguments[0]?arguments[0]:1,n=arguments.length>1&&void 0!==arguments[1]?arguments[1]:0,e=arguments.length>2&&void 0!==arguments[2]?arguments[2]:0,r=arguments.length>3&&void 0!==arguments[3]?arguments[3]:1,i=arguments.length>4&&void 0!==arguments[4]?arguments[4]:0,u=arguments.length>5&&void 0!==arguments[5]?arguments[5]:0,o=this.m;return o[0]=t,o[1]=n,o[2]=e,o[3]=r,o[4]=i,o[5]=u,this.w=this.s=this.i=null,this}},{key:"recomposeSelf",value:function(){var t=arguments.length>0&&void 0!==arguments[0]?arguments[0]:null,n=arguments.length>1&&void 0!==arguments[1]?arguments[1]:null,e=arguments.length>2&&void 0!==arguments[2]?arguments[2]:null,r=arguments.length>3&&void 0!==arguments[3]?arguments[3]:null,i=arguments.length>4&&void 0!==arguments[4]?arguments[4]:null;return this.isIdentity||this.resetSelf(),t&&(t.x||t.y)&&this.translateSelf(t.x,t.y),n&&this.rotateSelf(n),e&&(e.x&&this.skewSelf(e.x,0),e.y&&this.skewSelf(0,e.y)),!r||1===r.x&&1===r.y||this.scaleSelf(r.x,r.y),i&&(i.x||i.y)&&this.translateSelf(i.x,i.y),this}},{key:"decompose",value:function(){var t=arguments.length>0&&void 0!==arguments[0]?arguments[0]:0,n=arguments.length>1&&void 0!==arguments[1]?arguments[1]:0,e=this.m,r=e[0]*e[0]+e[1]*e[1],i=[[e[0],e[1]],[e[2],e[3]]],u=F(r);if(0===u)return{origin:{x:p(e[4]),y:p(e[5])},translate:{x:p(t),y:p(n)},scale:{x:0,y:0},skew:{x:0,y:0},rotate:0};i[0][0]/=u,i[0][1]/=u;var o=e[0]*e[3]-e[1]*e[2]<0;o&&(u=-u);var a=i[0][0]*i[1][0]+i[0][1]*i[1][1];i[1][0]-=i[0][0]*a,i[1][1]-=i[0][1]*a;var l=F(i[1][0]*i[1][0]+i[1][1]*i[1][1]);if(0===l)return{origin:{x:p(e[4]),y:p(e[5])},translate:{x:p(t),y:p(n)},scale:{x:p(u),y:0},skew:{x:0,y:0},rotate:0};i[1][0]/=l,i[1][1]/=l,a/=l;var s=0;return i[1][1]<0?(s=j(i[1][1])*R,i[0][1]<0&&(s=360-s)):s=E(i[0][1])*R,o&&(s=-s),a=P(a,F(i[0][0]*i[0][0]+i[0][1]*i[0][1]))*R,o&&(a=-a),{origin:{x:p(e[4]),y:p(e[5])},translate:{x:p(t),y:p(n)},scale:{x:p(u),y:p(l)},skew:{x:p(a),y:0},rotate:p(s)}}},{key:"clone",value:function(){var t=this.m;return new this.constructor(t[0],t[1],t[2],t[3],t[4],t[5])}},{key:"toString",value:function(){var t=arguments.length>0&&void 0!==arguments[0]?arguments[0]:" ";if(null===this.s){var n=this.m.map((function(t){return p(t)}));1===n[0]&&0===n[1]&&0===n[2]&&1===n[3]?this.s="translate("+n[4]+t+n[5]+")":this.s="matrix("+n.join(t)+")"}return this.s}}],[{key:"create",value:function(t){return t?Array.isArray(t)?f(this,v(t)):t instanceof this?t.clone():(new this).recomposeSelf(t.origin,t.rotate,t.skew,t.scale,t.translate):new this}}]),t}();function T(t,n,e){return t>=.5?e:n}function q(t,n,e){return 0===t||n===e?n:t*(e-n)+n}function B(t,n,e){var r=q(t,n,e);return r<=0?0:r}function D(t,n,e){var r=q(t,n,e);return r<=0?0:r>=1?1:r}function L(t,n,e){return 0===t?n:1===t?e:{x:q(t,n.x,e.x),y:q(t,n.y,e.y)}}function C(t,n,e){var r=function(t,n,e){return Math.round(q(t,n,e))}(t,n,e);return r<=0?0:r>=255?255:r}function V(t,n,e){return 0===t?n:1===t?e:{r:C(t,n.r,e.r),g:C(t,n.g,e.g),b:C(t,n.b,e.b),a:q(t,null==n.a?1:n.a,null==e.a?1:e.a)}}function G(t,n){for(var e=[],r=0;r<t;r++)e.push(n);return e}function z(t,n){if(--n<=0)return t;var e=(t=Object.assign([],t)).length;do{for(var r=0;r<e;r++)t.push(t[r])}while(--n>0);return t}var Y,$=function(){function t(n){r(this,t),this.list=n,this.length=n.length}return u(t,[{key:"setAttribute",value:function(t,n){for(var e=this.list,r=0;r<this.length;r++)e[r].setAttribute(t,n)}},{key:"removeAttribute",value:function(t){for(var n=this.list,e=0;e<this.length;e++)n[e].removeAttribute(t)}},{key:"style",value:function(t,n){for(var e=this.list,r=0;r<this.length;r++)e[r].style[t]=n}}]),t}(),U=/-./g,Q=function(t,n){return n.toUpperCase()};function H(t){return"function"==typeof t?t:T}function J(t){return t?"function"==typeof t?t:Array.isArray(t)?function(t){var n=arguments.length>1&&void 0!==arguments[1]?arguments[1]:b;if(!Array.isArray(t))return n;switch(t.length){case 1:return k(t[0])||n;case 2:return k(t[0],t[1])||n;case 4:return A(t[0],t[1],t[2],t[3])||n}return n}(t,null):function(t,n){var e=arguments.length>2&&void 0!==arguments[2]?arguments[2]:b;switch(t){case"linear":return b;case"steps":return k(n.steps||1,n.jump||0)||e;case"bezier":case"cubic-bezier":return A(n.x1||0,n.y1||0,n.x2||0,n.y2||0)||e}return e}(t.type,t.value,null):null}function Z(t,n,e){var r=arguments.length>3&&void 0!==arguments[3]&&arguments[3],i=n.length-1;if(t<=n[0].t)return r?[0,0,n[0].v]:n[0].v;if(t>=n[i].t)return r?[i,1,n[i].v]:n[i].v;var u,o=n[0],a=null;for(u=1;u<=i;u++){if(!(t>n[u].t)){a=n[u];break}o=n[u]}return null==a?r?[i,1,n[i].v]:n[i].v:o.t===a.t?r?[u,1,a.v]:a.v:(t=(t-o.t)/(a.t-o.t),o.e&&(t=o.e(t)),r?[u,t,e(t,o.v,a.v)]:e(t,o.v,a.v))}function K(t,n){var e=arguments.length>2&&void 0!==arguments[2]?arguments[2]:null;return t&&t.length?"function"!=typeof n?null:("function"!=typeof e&&(e=null),function(r){var i=Z(r,t,n);return null!=i&&e&&(i=e(i)),i}):null}function W(t,n){return t.t-n.t}function X(t,n,r,i,u){var o,a="@"===r[0],l="#"===r[0],s=Y[r],f=T;switch(a?(o=r.substr(1),r=o.replace(U,Q)):l&&(r=r.substr(1)),e(s)){case"function":if(f=s(i,u,Z,J,r,a,n,t),l)return f;break;case"string":f=K(i,H(s));break;case"object":if((f=K(i,H(s.i),s.f))&&"function"==typeof s.u)return s.u(n,f,r,a,t)}return f?function(t,n,e){if(arguments.length>3&&void 0!==arguments[3]&&arguments[3])return t instanceof $?function(r){return t.style(n,e(r))}:function(r){return t.style[n]=e(r)};if(Array.isArray(n)){var r=n.length;return function(i){var u=e(i);if(null==u)for(var o=0;o<r;o++)t[o].removeAttribute(n);else for(var a=0;a<r;a++)t[a].setAttribute(n,u)}}return function(r){var i=e(r);null==i?t.removeAttribute(n):t.setAttribute(n,i)}}(n,r,f,a):null}function tt(t,n,r,i){if(!i||"object"!==e(i))return null;var u=null,o=null;return Array.isArray(i)?o=function(t){if(!t||!t.length)return null;for(var n=0;n<t.length;n++)t[n].e&&(t[n].e=J(t[n].e));return t.sort(W)}(i):(o=i.keys,u=i.data||null),o?X(t,n,r,o,u):null}function nt(t,n,e){if(!e)return null;var r=[];for(var i in e)if(e.hasOwnProperty(i)){var u=tt(t,n,i,e[i]);u&&r.push(u)}return r.length?r:null}function et(t,n){if(!n.settings.duration||n.settings.duration<0)return null;var e,r,i,u,o,a=function(t,n){if(!n)return null;var e=[];if(Array.isArray(n))for(var r=n.length,i=0;i<r;i++){var u=n[i];if(2===u.length){var o=null;if("string"==typeof u[0])o=t.getElementById(u[0]);else if(Array.isArray(u[0])){o=[];for(var a=0;a<u[0].length;a++)if("string"==typeof u[0][a]){var l=t.getElementById(u[0][a]);l&&o.push(l)}o=o.length?1===o.length?o[0]:new $(o):null}if(o){var s=nt(t,o,u[1]);s&&(e=e.concat(s))}}}else for(var f in n)if(n.hasOwnProperty(f)){var c=t.getElementById(f);if(c){var h=nt(t,c,n[f]);h&&(e=e.concat(h))}}return e.length?e:null}(t,n.elements);return a?(e=a,r=n.settings,i=r.duration,u=e.length,o=null,function(t,n){var a=r.iterations||1/0,l=(r.alternate&&a%2==0)^r.direction>0?i:0,s=t%i,f=1+(t-s)/i;n*=r.direction,r.alternate&&f%2==0&&(n=-n);var c=!1;if(f>a)s=l,c=!0,-1===r.fill&&(s=r.direction>0?0:i);else if(n<0&&(s=i-s),s===o)return!1;o=s;for(var h=0;h<u;h++)e[h](s);return c}):null}function rt(t,n){if(Y=n,!t||!t.root||!Array.isArray(t.animations))return null;var e=function(t){for(var n=document.getElementsByTagName("svg"),e=0;e<n.length;e++)if(n[e].id===t.root&&!n[e].svgatorAnimation)return n[e].svgatorAnimation=!0,n[e];return null}(t);if(!e)return null;var r=t.animations.map((function(t){return et(e,t)})).filter((function(t){return!!t}));return r.length?{svg:e,animations:r,animationSettings:t.animationSettings,options:t.options||void 0}:null}function it(t){return+("0x"+(t.replace(/[^0-9a-fA-F]+/g,"")||27))}function ut(t,n,e){return!t||!e||n>t.length?t:t.substring(0,n)+ut(t.substring(n+1),e,e)}function ot(t){var n=arguments.length>1&&void 0!==arguments[1]?arguments[1]:27;return!t||t%n?t%n:ot(t/n,n)}function at(t,n,e){if(t&&t.length){var r=it(e),i=it(n),u=ot(r)+5,o=ut(t,ot(r,5),u);return o=o.replace(/\x7c$/g,"==").replace(/\x2f$/g,"="),o=function(t,n,e){var r=+("0x"+t.substring(0,4));t=t.substring(4);for(var i=n%r+e%27,u=[],o=0;o<t.length;o+=2)if("|"!==t[o]){var a=+("0x"+t[o]+t[o+1])-i;u.push(a)}else{var l=+("0x"+t.substring(o+1,o+1+4))-i;o+=3,u.push(l)}return String.fromCharCode.apply(String,u)}(o=(o=atob(o)).replace(/[\x41-\x5A]/g,""),i,r),o=JSON.parse(o)}}var lt=[{key:"alternate",def:!1},{key:"fill",def:1},{key:"iterations",def:0},{key:"direction",def:1},{key:"speed",def:1},{key:"fps",def:100}],st=function(){function t(n,e){var i=this,u=arguments.length>2&&void 0!==arguments[2]?arguments[2]:null;r(this,t),this._id=0,this._running=!1,this._rollingBack=!1,this._animations=n,this._settings=e,(!u||u<"2022-05-02")&&delete this._settings.speed,lt.forEach((function(t){i._settings[t.key]=i._settings[t.key]||t.def})),this.duration=e.duration,this.offset=e.offset||0,this.rollbackStartOffset=0}return u(t,[{key:"alternate",get:function(){return this._settings.alternate}},{key:"fill",get:function(){return this._settings.fill}},{key:"iterations",get:function(){return this._settings.iterations}},{key:"direction",get:function(){return this._settings.direction}},{key:"speed",get:function(){return this._settings.speed}},{key:"fps",get:function(){return this._settings.fps}},{key:"maxFiniteDuration",get:function(){return this.iterations>0?this.iterations*this.duration:this.duration}},{key:"_apply",value:function(t){for(var n=arguments.length>1&&void 0!==arguments[1]?arguments[1]:{},e=this._animations,r=e.length,i=0,u=0;u<r;u++)n[u]?i++:(n[u]=e[u](t,1),n[u]&&i++);return i}},{key:"_rollback",value:function(t){var n=this,e=1/0,r=null;this.rollbackStartOffset=t,this._rollingBack=!0,this._running=!0;this._id=window.requestAnimationFrame((function i(u){if(n._rollingBack){null==r&&(r=u);var o=Math.round(t-(u-r)*n.speed);if(o>n.duration&&e!==1/0){var a=!!n.alternate&&o/n.duration%2>1,l=o%n.duration;o=(l+=a?n.duration:0)||n.duration}var s=(n.fps?1e3/n.fps:0)*n.speed,f=Math.max(0,o);f<=e-s&&(n.offset=f,e=f,n._apply(f));var c=n.iterations>0&&-1===n.fill&&o>=n.maxFiniteDuration;(o<=0||n.offset<o||c)&&n.stop(),n._id=window.requestAnimationFrame(i)}}))}},{key:"_start",value:function(){var t=this,n=arguments.length>0&&void 0!==arguments[0]?arguments[0]:0,e=-1/0,r=null,i={};this._running=!0;var u=function u(o){null==r&&(r=o);var a=Math.round((o-r)*t.speed+n),l=(t.fps?1e3/t.fps:0)*t.speed;if(a>=e+l&&!t._rollingBack&&(t.offset=a,e=a,t._apply(a,i)===t._animations.length))return void t.pause(!0);t._id=window.requestAnimationFrame(u)};this._id=window.requestAnimationFrame(u)}},{key:"_pause",value:function(){this._id&&window.cancelAnimationFrame(this._id),this._running=!1}},{key:"play",value:function(){if(!this._running)return this._rollingBack?this._rollback(this.offset):this._start(this.offset)}},{key:"stop",value:function(){this._pause(),this.offset=0,this.rollbackStartOffset=0,this._rollingBack=!1,this._apply(0)}},{key:"reachedToEnd",value:function(){return this.iterations>0&&this.offset>=this.iterations*this.duration}},{key:"restart",value:function(){var t=arguments.length>0&&void 0!==arguments[0]&&arguments[0];this.stop(t),this.play(t)}},{key:"pause",value:function(){this._pause()}},{key:"reverse",value:function(){this.direction=-this.direction}}],[{key:"build",value:function(t,n){delete t.animationSettings,t.options=at(t.options,t.root,"5c7f360c"),t.animations.map((function(n){n.settings=at(n.s,t.root,"5c7f360c"),delete n.s,t.animationSettings||(t.animationSettings=n.settings)}));var e=t.version;if(!(t=rt(t,n)))return null;var r=t.options||{},i=new this(t.animations,t.animationSettings,e);return{el:t.svg,options:r,player:i}}},{key:"push",value:function(t){return this.build(t)}},{key:"init",value:function(){var t=this,n=window.__SVGATOR_PLAYER__&&window.__SVGATOR_PLAYER__["5c7f360c"];Array.isArray(n)&&n.splice(0).forEach((function(n){return t.build(n)}))}}]),t}();function ft(t){return p(t)+""}function ct(t){var n=arguments.length>1&&void 0!==arguments[1]?arguments[1]:" ";return t&&t.length?t.map(ft).join(n):""}function ht(t){if(!t)return"transparent";if(null==t.a||t.a>=1){var n=function(t){return 1===(t=parseInt(t).toString(16)).length?"0"+t:t},e=function(t){return t.charAt(0)===t.charAt(1)},r=n(t.r),i=n(t.g),u=n(t.b);return e(r)&&e(i)&&e(u)&&(r=r.charAt(0),i=i.charAt(0),u=u.charAt(0)),"#"+r+i+u}return"rgba("+t.r+","+t.g+","+t.b+","+t.a+")"}function vt(t){return t?"url(#"+t+")":"none"}!function(){for(var t=0,n=["ms","moz","webkit","o"],e=0;e<n.length&&!window.requestAnimationFrame;++e)window.requestAnimationFrame=window[n[e]+"RequestAnimationFrame"],window.cancelAnimationFrame=window[n[e]+"CancelAnimationFrame"]||window[n[e]+"CancelRequestAnimationFrame"];window.requestAnimationFrame||(window.requestAnimationFrame=function(n){var e=Date.now(),r=Math.max(0,16-(e-t)),i=window.setTimeout((function(){n(e+r)}),r);return t=e+r,i},window.cancelAnimationFrame=window.clearTimeout)}();var yt={f:null,i:function(t,n,e){return 0===t?n:1===t?e:{x:B(t,n.x,e.x),y:B(t,n.y,e.y)}},u:function(t,n){return function(e){var r=n(e);t.setAttribute("rx",ft(r.x)),t.setAttribute("ry",ft(r.y))}}},gt={f:null,i:function(t,n,e){return 0===t?n:1===t?e:{width:B(t,n.width,e.width),height:B(t,n.height,e.height)}},u:function(t,n){return function(e){var r=n(e);t.setAttribute("width",ft(r.width)),t.setAttribute("height",ft(r.height))}}};Object.freeze({M:2,L:2,Z:0,H:1,V:1,C:6,Q:4,T:2,S:4,A:7});var pt={},dt=null;function mt(t){var n=function(){if(dt)return dt;if("object"!==("undefined"==typeof document?"undefined":e(document))||!document.createElementNS)return{};var t=document.createElementNS("http://www.w3.org/2000/svg","svg");return t&&t.style?(t.style.position="absolute",t.style.opacity="0.01",t.style.zIndex="-9999",t.style.left="-9999px",t.style.width="1px",t.style.height="1px",dt={svg:t}):{}}().svg;if(!n)return function(t){return null};var r=document.createElementNS(n.namespaceURI,"path");r.setAttributeNS(null,"d",t),r.setAttributeNS(null,"fill","none"),r.setAttributeNS(null,"stroke","none"),n.appendChild(r);var i=r.getTotalLength();return function(t){var n=r.getPointAtLength(i*t);return{x:n.x,y:n.y}}}function bt(t){return pt[t]?pt[t]:pt[t]=mt(t)}function wt(t,n,e,r){if(!t||!r)return!1;var i=["M",t.x,t.y];if(n&&e&&(i.push("C"),i.push(n.x),i.push(n.y),i.push(e.x),i.push(e.y)),n?!e:e){var u=n||e;i.push("Q"),i.push(u.x),i.push(u.y)}return n||e||i.push("L"),i.push(r.x),i.push(r.y),i.join(" ")}function At(t,n,e,r){var i=arguments.length>4&&void 0!==arguments[4]?arguments[4]:1,u=wt(t,n,e,r),o=bt(u);try{return o(i)}catch(t){return null}}function _t(t,n,e){return t+(n-t)*e}function xt(t,n,e){var r=arguments.length>3&&void 0!==arguments[3]&&arguments[3],i={x:_t(t.x,n.x,e),y:_t(t.y,n.y,e)};return r&&(i.a=kt(t,n)),i}function kt(t,n){return Math.atan2(n.y-t.y,n.x-t.x)}function St(t,n,e,r){var i=1-r;return i*i*t+2*i*r*n+r*r*e}function Ot(t,n,e,r){return 2*(1-r)*(n-t)+2*r*(e-n)}function jt(t,n,e,r){var i=arguments.length>4&&void 0!==arguments[4]&&arguments[4],u=At(t,n,null,e,r);return u||(u={x:St(t.x,n.x,e.x,r),y:St(t.y,n.y,e.y,r)}),i&&(u.a=Et(t,n,e,r)),u}function Et(t,n,e,r){return Math.atan2(Ot(t.y,n.y,e.y,r),Ot(t.x,n.x,e.x,r))}function Mt(t,n,e,r,i){var u=i*i;return i*u*(r-t+3*(n-e))+3*u*(t+e-2*n)+3*i*(n-t)+t}function Pt(t,n,e,r,i){var u=1-i;return 3*(u*u*(n-t)+2*u*i*(e-n)+i*i*(r-e))}function It(t,n,e,r,i){var u=arguments.length>5&&void 0!==arguments[5]&&arguments[5],o=At(t,n,e,r,i);return o||(o={x:Mt(t.x,n.x,e.x,r.x,i),y:Mt(t.y,n.y,e.y,r.y,i)}),u&&(o.a=Rt(t,n,e,r,i)),o}function Rt(t,n,e,r,i){return Math.atan2(Pt(t.y,n.y,e.y,r.y,i),Pt(t.x,n.x,e.x,r.x,i))}function Ft(t,n,e){var r=arguments.length>3&&void 0!==arguments[3]&&arguments[3];if(Tt(n)){if(qt(e))return jt(n,e.start,e,t,r)}else if(Tt(e)){if(Bt(n))return jt(n,n.end,e,t,r)}else{if(Bt(n))return qt(e)?It(n,n.end,e.start,e,t,r):jt(n,n.end,e,t,r);if(qt(e))return jt(n,e.start,e,t,r)}return xt(n,e,t,r)}function Nt(t,n,e){var r=Ft(t,n,e,!0);return r.a=function(t){return arguments.length>1&&void 0!==arguments[1]&&arguments[1]?t+Math.PI:t}(r.a)/m,r}function Tt(t){return!t.type||"corner"===t.type}function qt(t){return null!=t.start&&!Tt(t)}function Bt(t){return null!=t.end&&!Tt(t)}var Dt=new N;var Lt={f:ft,i:q},Ct={f:ft,i:D};function Vt(t,n,e){return t.map((function(t){return function(t,n,e){var r=t.v;if(!r||"g"!==r.t||r.s||!r.v||!r.r)return t;var i=e.getElementById(r.r),u=i&&i.querySelectorAll("stop")||[];return r.s=r.v.map((function(t,n){var e=u[n]&&u[n].getAttribute("offset");return{c:t,o:e=p(parseInt(e)/100)}})),delete r.v,t}(t,0,e)}))}var Gt={gt:"gradientTransform",c:{x:"cx",y:"cy"},rd:"r",f:{x:"x1",y:"y1"},to:{x:"x2",y:"y2"}};function zt(t,n,r,i,u,o,a,l){return Vt(t,0,l),n=function(t,n,e){for(var r,i,u,o=t.length-1,a={},l=0;l<=o;l++)(r=t[l]).e&&(r.e=n(r.e)),r.v&&"g"===(i=r.v).t&&i.r&&(u=e.getElementById(i.r))&&(a[i.r]={e:u,s:u.querySelectorAll("stop")});return a}(t,i,l),function(i){var u=r(i,t,Yt);if(!u)return"none";if("c"===u.t)return ht(u.v);if("g"===u.t){if(!n[u.r])return vt(u.r);var o=n[u.r];return function(t,n){for(var e=t.s,r=e.length;r<n.length;r++){var i=e[e.length-1].cloneNode();i.id=Qt(i.id),t.e.appendChild(i),e=t.s=t.e.querySelectorAll("stop")}for(var u=0,o=e.length,a=n.length-1;u<o;u++)e[u].setAttribute("stop-color",ht(n[Math.min(u,a)].c)),e[u].setAttribute("offset",n[Math.min(u,a)].o)}(o,u.s),Object.keys(Gt).forEach((function(t){if(void 0!==u[t])if("object"!==e(Gt[t])){var n,r="gt"===t?(n=u[t],Array.isArray(n)?"matrix("+n.join(" ")+")":""):u[t],i=Gt[t];o.e.setAttribute(i,r)}else Object.keys(Gt[t]).forEach((function(n){if(void 0!==u[t][n]){var e=u[t][n],r=Gt[t][n];o.e.setAttribute(r,e)}}))})),vt(u.r)}return"none"}}function Yt(t,e,r){if(0===t)return e;if(1===t)return r;if(e&&r){var i=e.t;if(i===r.t)switch(e.t){case"c":return{t:i,v:V(t,e.v,r.v)};case"g":if(e.r===r.r){var u={t:i,s:$t(t,e.s,r.s),r:e.r};return e.gt&&r.gt&&(u.gt=function(t,n,e){var r=n.length;if(r!==e.length)return T(t,n,e);for(var i=new Array(r),u=0;u<r;u++)i[u]=q(t,n[u],e[u]);return i}(t,e.gt,r.gt)),e.c?(u.c=L(t,e.c,r.c),u.rd=B(t,e.rd,r.rd)):e.f&&(u.f=L(t,e.f,r.f),u.to=L(t,e.to,r.to)),u}}if("c"===e.t&&"g"===r.t||"c"===r.t&&"g"===e.t){var o="c"===e.t?e:r,a="g"===e.t?n({},e):n({},r),l=a.s.map((function(t){return{c:o.v,o:t.o}}));return a.s="c"===e.t?$t(t,l,a.s):$t(t,a.s,l),a}}return T(t,e,r)}function $t(t,n,e){if(n.length===e.length)return n.map((function(n,r){return Ut(t,n,e[r])}));for(var r=Math.max(n.length,e.length),i=[],u=0;u<r;u++){var o=Ut(t,n[Math.min(u,n.length-1)],e[Math.min(u,e.length-1)]);i.push(o)}return i}function Ut(t,n,e){return{o:D(t,n.o,e.o||0),c:V(t,n.c,e.c||{})}}function Qt(t){return t.replace(/-fill-([0-9]+)$/,(function(t,n){return"-fill-"+(+n+1)}))}var Ht={fill:zt,"fill-opacity":Ct,stroke:zt,"stroke-opacity":Ct,"stroke-width":Lt,"stroke-dashoffset":{f:ft,i:q},"stroke-dasharray":{f:function(t){var n=arguments.length>1&&void 0!==arguments[1]?arguments[1]:" ";return t&&t.length>0&&(t=t.map((function(t){return p(t,4)}))),ct(t,n)},i:function(t,n,e){var r,i,u,o=n.length,a=e.length;if(o!==a)if(0===o)n=G(o=a,0);else if(0===a)a=o,e=G(o,0);else{var l=(u=(r=o)*(i=a)/function(t,n){for(var e;n;)e=n,n=t%n,t=e;return t||1}(r,i))<0?-u:u;n=z(n,Math.floor(l/o)),e=z(e,Math.floor(l/a)),o=a=l}for(var s=[],f=0;f<o;f++)s.push(p(B(t,n[f],e[f])));return s}},opacity:Ct,transform:function(t,n,r,i){if(!(t=function(t,n){if(!t||"object"!==e(t))return null;var r=!1;for(var i in t)t.hasOwnProperty(i)&&(t[i]&&t[i].length?(t[i].forEach((function(t){t.e&&(t.e=n(t.e))})),r=!0):delete t[i]);return r?t:null}(t,i)))return null;var u=function(e,i,u){var o=arguments.length>3&&void 0!==arguments[3]?arguments[3]:null;return t[e]?r(i,t[e],u):n&&n[e]?n[e]:o};return n&&n.a&&t.o?function(n){var e=r(n,t.o,Nt);return Dt.recomposeSelf(e,u("r",n,q,0)+e.a,u("k",n,L),u("s",n,L),u("t",n,L)).toString()}:function(t){return Dt.recomposeSelf(u("o",t,Ft,null),u("r",t,q,0),u("k",t,L),u("s",t,L),u("t",t,L)).toString()}},r:Lt,"#size":gt,"#radius":yt,_:function(t,n){if(Array.isArray(t))for(var e=0;e<t.length;e++)this[t[e]]=n;else this[t]=n}},Jt=function(t){!function(t,n){if("function"!=typeof n&&null!==n)throw new TypeError("Super expression must either be null or a function");t.prototype=Object.create(n&&n.prototype,{constructor:{value:t,writable:!0,configurable:!0}}),n&&l(t,n)}(o,t);var n,e,i=(n=o,e=s(),function(){var t,r=a(n);if(e){var i=a(this).constructor;t=Reflect.construct(r,arguments,i)}else t=r.apply(this,arguments);return c(this,t)});function o(){return r(this,o),i.apply(this,arguments)}return u(o,null,[{key:"build",value:function(t){var n=h(a(o),"build",this).call(this,t,Ht);if(!n)return null;n.el,n.options,function(t,n,e){t.play()}(n.player)}}]),o}(st);return Jt.init(),Jt}));
(function(s,i,o,w,d,a,b){w[o]=w[o]||{};w[o][s]=w[o][s]||[];w[o][s].push(i);})('5c7f360c',{"root":"eazHLWTwkio1","version":"2022-05-04","animations":[{"elements":{"eazHLWTwkio2":{"transform":{"data":{"t":{"x":-205.947266,"y":-127.515625}},"keys":{"o":[{"t":0,"v":{"x":337.947266,"y":127.515625,"type":"corner"}},{"t":300,"v":{"x":205.947266,"y":127.515625,"type":"corner"}}]}},"opacity":[{"t":0,"v":0},{"t":100,"v":1}]},"eazHLWTwkio11":{"transform":{"data":{"t":{"x":-169.044922,"y":-157.5}},"keys":{"o":[{"t":300,"v":{"x":36.772516,"y":157.449218,"type":"corner"}},{"t":500,"v":{"x":167.772516,"y":157.449218,"type":"corner"}}]}},"opacity":[{"t":300,"v":0},{"t":400,"v":1}]},"eazHLWTwkio25":{"opacity":[{"t":500,"v":0},{"t":1000,"v":1}]},"eazHLWTwkio29":{"opacity":[{"t":500,"v":0},{"t":1000,"v":1}]},"eazHLWTwkio33":{"opacity":[{"t":500,"v":0},{"t":1000,"v":1}]},"eazHLWTwkio37":{"opacity":[{"t":500,"v":0},{"t":1000,"v":1}]},"eazHLWTwkio41":{"opacity":[{"t":500,"v":0},{"t":1000,"v":1}]},"eazHLWTwkio45":{"opacity":[{"t":500,"v":0},{"t":1000,"v":1}]},"eazHLWTwkio49":{"opacity":[{"t":500,"v":0},{"t":1000,"v":1}]},"eazHLWTwkio53":{"opacity":[{"t":500,"v":0},{"t":1000,"v":1}]},"eazHLWTwkio57":{"opacity":[{"t":500,"v":0},{"t":1000,"v":1}]},"eazHLWTwkio61":{"opacity":[{"t":500,"v":0},{"t":1000,"v":1}]}},"s":"MEDA1ZGEwQjQ3ODk5YTLk3ODY5OThlOTQ5MzQJ3NWY1NjU1NTU1NTUxYNDc4OThlOTc4YVM4ORDk5OGU5NDkzNDc1ZkDs1NjUxNDc4ZTk5OGEV5Nzg2OTk4ZTk0OTM5EODQ3NWY1NjUxNDc4YOjhlOTFYOTE0NzVmSTIU2NTE0Nzg2OTE5OUsN4YTk3OTM4NlY5OThhPNDc1ZjhiTDg2OTE5OGDhhQjUxNDdPOTg5NTBhhQThhODk0NzVmNTZEBNTE0NzhiOTU5ODQ3ONWY1NjU1NTVhMlg/"}],"options":"MODAxMDg4MmY4MDgxNmGU3ZjgxMmZXSjQ3MmZJTNzk3YzZlNzEyZkY4SYQ|"},'__SVGATOR_PLAYER__',window,document)
]]></script>
</svg>
